<?xml version="1.0" encoding="UTF-8"?><svg id="Layer_2" xmlns="http://www.w3.org/2000/svg" viewBox="0 0 2582.87 2582.87"><rect x="1.5" y="1.5" width="2579.87" height="2579.87" style="fill:#fff; stroke:#000; stroke-miterlimit:10; stroke-width:3px;"/><path d="M1182.86,562.53s-44.98-55.46-31.35-85.64" style="fill:none; stroke:#000; stroke-miterlimit:10;"/><path d="M1081.59,575.2s-22.54-33.04-12.04-48.08" style="fill:none; stroke:#000; stroke-miterlimit:10;"/><path d="M1226.04,562.53s315.32-74.57,408.81,23.79" style="fill:none; stroke:#000; stroke-miterlimit:10;"/><path d="M1249.18,508.01s216.96-72.92,293.59-15.68" style="fill:none; stroke:#000; stroke-miterlimit:10;"/><path d="M1292.48,461.26s129.02-34.57,173.96-9.92" style="fill:none; stroke:#000; stroke-miterlimit:10;"/><path d="M1350.04,592.73s269.93,11.31,316.28,51.24" style="fill:none; stroke:#000; stroke-miterlimit:10;"/><path d="M1808.7,1328.93s-42.12,52.23-106.47,68.17" style="fill:none; stroke:#000; stroke-miterlimit:10;"/><path d="M1793.45,1407.74s-103.23,4.93-144.12,176.33c-29.75,89.58-31.75,39.72-95.43,96.56s14.42,143-79.94,226.75" style="fill:none; stroke:#000; stroke-miterlimit:10;"/><path d="M1783.7,1523.69s-41.88,64.27-89.59,111.02c-47.72,46.75-91.53,44.64-90.08,165.96,0,0,15.12,55.85-140.72,181.69-107.28,96.4-20.64,196.71-107.28,281.43" style="fill:none; stroke:#000; stroke-miterlimit:10;"/><path d="M1263.1,962.06s-2.08-7.7-.38-11.66c0,0,3.91,12.05,5.21,10.49,0,0-.64-8.89.84-11.66,0,0,1.99,9.47,5.88,10.42-.07.15-3.05-7.54.33-13.31,0,0,.98,10.51,4.99,12.8,0,0-1.19-10.94.77-13.91,0,0,1.9,13.95,4.33,13.16,0,0-1.38-11.11.33-13.16,0,0,2.81,14.24,3.78,13.32,0,0,1.7-10.68,1.89-13.32,0,0,3.55,12.58,2.89,13.91,0,0,2.66-10.86,3.89-13.91,0,0,0,10.99.56,14.43,0,0,5.22-10.81,4.88-12.54l-.32,12.83c2.54-.72,9.37-13.22,9.37-13.22.44,2.7-3.61,14.82-3.61,14.82,2.97,1.3,9.33-13.32,9.33-13.32,1.41,3.44-4.71,15.47-4.71,15.47,6.44-1.55,11.54-14.97,11.54-14.97,1.72,3.38-5.5,16.05-5.5,16.05,3.88-.64,11.32-13.88,11.32-13.88.65,4.4-6.75,14.89-6.75,14.89" style="fill:none; stroke:#000; stroke-miterlimit:10;"/><path d="M1294.1,959.3c-4.87,1.63-15.15,24.35,2.17,40.59" style="fill:none; stroke:#000; stroke-miterlimit:10; stroke-width:2px;"/><path d="M1334.34,996.96c8.63-1.87,10.61-17.37,6.73-22.55" style="fill:none; stroke:#000; stroke-miterlimit:10; stroke-width:2px;"/><path d="M1307.59,963.42c3.3,0,3.76,5.6.9,5.6-3.65,0-4.19-5.6-.9-5.6Z" style="fill:none; stroke:#000; stroke-miterlimit:10; stroke-width:2px;"/><path d="M1312.79,968.29c-10.85,0-9.33,17.4,0,17.4,12.9,0,10.85-17.4,0-17.4Z" style="fill:none; stroke:#000; stroke-miterlimit:10; stroke-width:2px;"/><path d="M1076.07,971.87s-19.97-40.25-66.54-40.25c-36.52,0-46.1,18.56-53.56,18.56,0,0,16.23,18.77,38.96,18.77s30.83-2.92,41.55-2.6c10.71.32,24.02,5.52,39.61,5.52h-.01Z" style="fill:none; stroke:#000; stroke-miterlimit:10; stroke-width:2px;"/><path d="M1006.12,931.67s-18.67,21.57,3.41,36.82" style="fill:none; stroke:#000; stroke-miterlimit:10; stroke-width:2px;"/><path d="M1024.17,934.69c3.36,0,4.18,6.66,0,6.66-4.66,0-3.69-6.66,0-6.66Z" style="fill:none; stroke:#000; stroke-miterlimit:10; stroke-width:2px;"/><path d="M1055.83,947.9c0,8.38-6.06,18.77-12.56,19.15" style="fill:none; stroke:#000; stroke-miterlimit:10; stroke-width:2px;"/><path d="M1022.57,941.01c-8.46,8.46,5.42,20.88,11.71,14.58,12.14-12.14-4.93-19.42-7.26-17.08" style="fill:none; stroke:#000; stroke-miterlimit:10; stroke-width:2px;"/><path d="M1030.47,1139.52s-49.67,59.89-54.04,84.72" style="fill:none; stroke:#000; stroke-miterlimit:10;"/><path d="M1004.96,1331.85s-10.21,48.34.25,66.71" style="fill:none; stroke:#000; stroke-miterlimit:10;"/><path d="M1202.64,922.85s147.37-48.47,210.78-1.73c0,0-37.66-41.55-66.44-48.9-28.78-7.36-146.12,15.12-152.35,18.61-5.3,2.97-5.62,30.9,8.01,32.03Z" style="fill:none; stroke:#000; stroke-miterlimit:10; stroke-width:2px;"/><path d="M1018.29,1251.02c16.55,10.71,5.52,56.16,70.44,64.49,57.78,0,116.86-.56,179.83-42.62,0,0-91.53-49.45-156.46-37.11,0,0-39.61-27.92-93.81,15.25h.01Z" style="fill:none; stroke:#000; stroke-miterlimit:10; stroke-width:2px;"/><path d="M1610.28,1233.9s-2,16.46-3.14,23.21c-.11.65-.21,1.21-.3,1.65-1.14,8.01,6.71,5.95,7.46,1.62,2.44-7.84,3.84-24.18,3.84-24.18" style="fill:none; stroke:#000; stroke-miterlimit:10;"/><path d="M1607.96,1251.74s-16.33,6.12-3.47,19.27" style="fill:none; stroke:#000; stroke-miterlimit:10;"/><path d="M1615.96,1253.19s9.66,11.67-2.62,18.66" style="fill:none; stroke:#000; stroke-miterlimit:10;"/><path d="M1607.28,1256.29c-1.01,0-8.3,6.58.68,12.16,9.1,2.43,8.81-8.49,7.03-9.79" style="fill:none; stroke:#000; stroke-miterlimit:10;"/><path d="M1608.75,1269.79c-10.46,0-11.31,14.83-.71,14.83.14.06-.12,0,0,0,9.44,0,8.79-14.83.71-14.83Z" style="fill:none; stroke:#000; stroke-miterlimit:10;"/><path d="M1607.4,1297.98c-8.87.08-10.17,15.65-.46,15.65s8.63-15.73.46-15.65Z" style="fill:none; stroke:#000; stroke-miterlimit:10;"/><path d="M1608.09,1284.97c-9.4,0-10.7,13-.91,12.93,10.54,0,7.82-12.93.91-12.93Z" style="fill:none; stroke:#000; stroke-miterlimit:10;"/><path d="M1609.23,1313.35c-4.54,36.52-3.52,51.02-4.63,54.21,0,.71-1.57,1.56-2.83,1.3-1.04-.22-1.83-.89-1.83-2.15,2.35-38.04,4.45-53.36,4.45-53.36" style="fill:none; stroke:#000; stroke-miterlimit:10;"/><path d="M1599.99,1367.21c-2.66,0-6.12,6.68,1.29,6.68,7.96.68,6.6-6.36,3.57-6.36" style="fill:none; stroke:#000; stroke-miterlimit:10;"/><path d="M1599.66,1373.76s-2.2,27.6-2.2,31.18,4.18,3.74,4.18.57l2.39-31.57" style="fill:none; stroke:#000; stroke-miterlimit:10;"/><path d="M1707.39,860.2c24.84,25.64,32.06,61.76,42.38,95.82,1.03,1.03,2.06,3.1,2.06,4.13,4.13,17.54,5.16,34.05,15.48,49.53,2.06,2.06,3.1,4.13,5.16,7.22,22.7,26.83,43.34,49.53,62.95,78.43,33.02,49.53,41.28,110.42,15.48,163.05-1.03,2.06,0,3.1-1.03,5.16-10.32,23.73-25.8,45.41-41.28,66.04-1.03,55.73,4.13,110.42,18.58,166.14,14.45,55.73,37.15,103.19,65.01,152.73,2.06,3.1,4.13,5.16,6.19,8.26,15.48,25.8,31.99,48.5,50.57,72.24,8.26,9.29,15.48,18.58,22.7,27.86,1.03,1.03,3.1,2.06,4.13,3.1,10.32,13.42,21.67,24.77,31.99,38.18,1.03,1.03,3.1,2.06,4.13,3.1,8.26,9.29,15.48,18.58,23.73,26.83,8.26,9.29,15.48,19.61,24.77,28.89,1.03,1.03,1.03,3.1,2.06,4.13,18.58,21.67,33.02,44.37,45.41,69.14,10.32,22.7,20.64,45.41,29.93,69.14,7.22,18.58,13.42,37.15,19.61,55.73,7.22,21.67,11.35,42.31,17.54,63.98,12.38,50.57,18.58,98.03,22.7,148.6,7.22,85.65,5.16,170.27-1.03,255.92-1.35,15.93-2.83,31.76-4.39,47.5" style="fill:none; stroke:#000; stroke-miterlimit:10; stroke-width:3px;"/><path d="M895.91,2180.69c-8.84,15.73-16.07,32.24-24.32,48.75-1.03,2.06,0,3.1-1.03,5.16-36.12,78.43-60.88,157.89-74.3,243.54-2.06,17.54-4.13,35.09-5.16,52.63-.68,15.1-.92,30.19-.38,45.28" style="fill:none; stroke:#000; stroke-miterlimit:10; stroke-width:3px;"/><path d="M1135.01,1488.29s40.06,67.19,60.51,192.32c-30.96,91.66-79.5,178-54.29,295.29,5.32,24.78,13.94,50.94,26.71,78.81,45.12,54.86,101.93,52.61,135.04,35.72,33.1-16.89,34.26-76.05,71.41-125.96,40.9-37.01,116.86-63.62,116.21-251.9,22.89-106.47,165.06-138.61,169.45-253.19-13.49-55.23-47.76-25.98-34.86-224.6" style="fill:none; stroke:#000; stroke-miterlimit:10; stroke-width:3px;"/><path d="M1251,1505.23s-43.18,1.98-128.95-20.92" style="fill:none; stroke:#000; stroke-miterlimit:10;"/><path d="M1574.66,1206.87s12.82,30.51,34.89,27.59c0,0,3.41-23.69,1.79-37.33,0,0,3.57-8.11,9.41,0,0,0-.32,23.04-1.95,39.28,0,0,19.8-4.54,42.2-28.89,22.39-24.34,16.23-20.12,22.72-32.78s19.47-10.06,36.36-64.6c16.88-54.54,11.68-45.77,14.6-82.45,2.92-36.68-1.62-83.1-32.78-93.16-31.16-10.06-49.34,40.58-87.96,90.56-38.63,49.99-37.33-73.68-41.88-103.55-4.54-29.86-71.09-148.34-133.41-184.7s-2.6-124.65-233.72-162.3c-231.11-37.66-278.18,203.2-283.05,295.71-7.79,86.67-34.09,144.12-37.98,210.34,6.82,232.1,119.78,316.49,119.78,316.49,29.27,54.64,56.98,81.42,108.17,85.71,4.94.41,10.1.62,15.5.62,61.35,0,332.72-13.62,403.16-110.68,23.69-30.83,44.15-165.88,44.15-165.88h.01Z" style="fill:none; stroke:#000; stroke-miterlimit:10; stroke-width:3px;"/><path d="M924.58,839.92s-14.38-407.88,471.23-410.8c378.17,88.61,306.11,505.41,306.11,505.41" style="fill:none; stroke:#000; stroke-miterlimit:10; stroke-width:3px;"/><path d="M766.33,2571.01c7.22-53.66,13.42-105.26,16.51-157.89,4.13-61.92,5.16-122.8,9.29-184.72,7.22-99.07,21.67-192.97,44.37-293.07,7.22-26.83,14.45-52.63,25.8-77.4,1.03-3.1,1.03-6.19,2.06-9.29,7.22-15.48,14.45-29.93,23.73-45.41,8.26-11.35,15.48-21.67,25.8-29.93,8.26-6.19,14.45-11.35,22.7-17.54,31.99-26.83,61.92-51.6,98.03-71.2,20.64-10.32,40.25-19.61,60.88-28.89,26.83-11.35,53.66-20.64,79.46-33.02,3.1-1.03,5.16-1.03,8.31-2.43" style="fill:none; stroke:#000; stroke-miterlimit:10; stroke-width:3px;"/><path d="M1597.06,2432.59c-1.49,45.94-1.38,92.35.34,138.46" style="fill:none; stroke:#000; stroke-miterlimit:10; stroke-width:3px;"/><path d="M1195.52,1680.63s-6.33,144.46,105.66,158.58c114.42-2.44,183.2-88.83,189.02-101.74" style="fill:none; stroke:#000; stroke-miterlimit:10; stroke-width:2px;"/><path d="M1198.35,1745.57c-7.31.32-13.8,15.42,0,19.97,9.58.11,7.93-20.42,0-19.97Z" style="fill:none; stroke:#000; stroke-miterlimit:10; stroke-width:2px;"/><path d="M1233.02,1805.99c-5.36-1.95-15.9,9.41-5.36,18.02,10.71,5.36,13.96-18.02,5.36-18.02Z" style="fill:none; stroke:#000; stroke-miterlimit:10; stroke-width:2px;"/><path d="M1299.24,1839.24c-8.93,1.14-16.23,17.69,0,21.91,15.1,2.6,8.93-23.04,0-21.91Z" style="fill:none; stroke:#000; stroke-miterlimit:10; stroke-width:2px;"/><path d="M1361.41,1830.6c-3.81,1.21-9.9,12.82,0,15.1,15.25-.82,7.46-17.04,0-15.1Z" style="fill:none; stroke:#000; stroke-miterlimit:10; stroke-width:2px;"/><path d="M1440.44,1791c-6.33,3.09-12.98,18.34,4.87,19.97,12.66-3.57,3.57-24.51-4.87-19.97Z" style="fill:none; stroke:#000; stroke-miterlimit:10; stroke-width:2px;"/><path d="M1649.72,1170.95c-8.42,0-13.42,16.88,0,16.88,12.55,0,7.79-16.88,0-16.88Z" style="fill:none; stroke:#000; stroke-miterlimit:10;"/><path d="M1671.17,1149.73c4.76,0,9.96,11.68,0,11.68s-6.06-11.68,0-11.68Z" style="fill:none; stroke:#000; stroke-miterlimit:10;"/><path d="M1708.89,984.52c4.27,0,7.46,9.41,0,9.41,4.97,0,4.97,7.96,0,7.96,3.29,2.68-.57,5.39-.57,5.39,2.03,2.03-2.02,6.64-4.06,4.6-2.76-2.95,0-4.95,0-4.95-2.17-1.05-1.43-5.66.87-6.11-1.82.15-2.68-6.72-.87-6.87-3.57,0-3.57-8.61,0-8.61-3.06,1.42-6.23-5.4-3.17-6.82-2.62,1.6-4.89-2.14-2.27-3.74-3.02,1.21-4.64-2.85-1.62-4.06,0,0,3.74-.15,3.74,2.6,0,0,3.96-1.32,3.96,2.36,5.67,0,8.47,8.83,3.98,8.83h0Z" style="fill:none; stroke:#000; stroke-miterlimit:10;"/><path d="M1268.26,1272.73c-57.91,6.97-110.07-4.1-130.84-3.2-11.15.17-18.99-7.14-23.86-6.98-6.92-.19-6.73,1.27-15.1,3.25-14.18,1.25-56.16-13.15-80.18-14.77" style="fill:none; stroke:#000; stroke-miterlimit:10; stroke-width:2px;"/><path d="M1098.92,1265.68c1.62,0,7.63,2.98,12.41,2.98s11.19-2.08,12.57-2.08" style="fill:none; stroke:#000; stroke-miterlimit:10; stroke-width:2px;"/><path d="M1075.75,922.85s40.9,7.14,15.1,120.26c-18.82,34.74-83.59,86.34,8.47,126.1,20.74-2.92,13.44-20.34,39.73-17.53,35.6,8.44,22.39,24.83,40.41,24.83s40.41-23.86,26.78-52.1" style="fill:none; stroke:#000; stroke-miterlimit:10; stroke-width:2px;"/><path d="M1232.2,1161.75s29.53,57.13,70.11,94.46" style="fill:none; stroke:#000; stroke-miterlimit:10;"/><path d="M1061.44,1086.98s-45.23,41.12,0,73.15" style="fill:none; stroke:#000; stroke-miterlimit:10; stroke-width:2px;"/><path d="M1069.47,912.57c-6.69.67-105.39-69.04-149.96-34.62,0,0,17.75-31.6,47.18-34.41,29.43-2.82,96.08,41.33,102.79,45.45,6.71,4.11,4.32,23.16,0,23.59h-.01Z" style="fill:none; stroke:#000; stroke-miterlimit:10; stroke-width:2px;"/><path d="M1068.61,938.75s-22.72-24.34-47.07-24.34c-6.39,0-50.75-6.71-61.68,4.22-16.55,16.55-13.53,23.27-16.23,25.96" style="fill:none; stroke:#000; stroke-miterlimit:10; stroke-width:.75px;"/><path d="M1226.04,966.66s26.29-47.28,73.03-28.35c25.32,5.95,51.29,2.38,83.42,42.63" style="fill:none; stroke:#000; stroke-miterlimit:10; stroke-width:.75px;"/><path d="M1224.41,988.3s32.68-39.61,79.85-27.05c47.18,12.55,56.26,26.83,56.26,27.05,0,0-20.12,11.68-58.21,11.68s-50.2-12.12-57.78-12.12-19.26,5.62-20.12.43Z" style="fill:none; stroke:#000; stroke-miterlimit:10; stroke-width:2px;"/><path d="M1704.48,1075.73s28.27-114.26-13.28-111.67c-41.55,2.6-62.4,106.06-60.01,117.17.61,4.48-13.67,30.86-11.73-25.3,1.95-56.16-11.68,3.57-4.54,44.47-.57,10.55-17.53,31.9-15.58,37.98,6.89,4.71,21.18-10.46,23.37-22.72,1.05-10.55,19.8-4.22,23.37-4.22s56.24-42.44-3.49-85.94" style="fill:none; stroke:#000; stroke-miterlimit:10;"/><path d="M1359.5,988.73s11.38-.89,16.28-7.23c0,0-10.15,6.79-17.07,4.59" style="fill:none; stroke:#000; stroke-miterlimit:10;"/><path d="M1358.73,985.68s14.12-2.75,16.14-7.82c0,0-5.16,4.72-15.42,5.68,0,0,10.39-3.52,13.15-9.84,0,0-10.71,8.54-17.75,7.25,0,0,13.96-8.33,13.58-13.1,0,0-14,11.64-18.39,10.83" style="fill:none; stroke:#000; stroke-miterlimit:10;"/><path d="M1239.12,974.83s-1.51,3.62-3.88.69c0,0,3.85.31,4.64-2.04,0,0-2.67.58-3.6-3.04,0,0,5.54,4.29,5.67,1.96,0,0-3.11-3.22-3.05-6.7,0,0,4.9,9.21,5.47,5.37,0,0-2.81-5.31-2.83-8.58,0,0,3.41,8.7,7.45,5.59,0,0-3.15-3.36-3.2-8.34,0,0,5.82,9.62,8.44,6.31,0,0-4.95-6.79-3.22-9.45,0,0,5.57,8.91,7.61,7.31,0,0-2.52-8.23-1.33-10.98,0,0,3.92,10.69,5.83,9.14" style="fill:none; stroke:#000; stroke-miterlimit:10;"/><path d="M1352.43,979.88c2.08-.8,15.04-9.16,14.82-14.09,0,0-17.51,14.3-18.35,12.02,0,0,13.38-12.7,13.04-16.37,0,0-12.12,14.55-18.11,13.72,0,0,12.08-9.68,13.07-15.51,0,0-10.22,12.25-17.21,12.78,0,0,11.22-12.22,10.33-16.33,0,0-13.36,16.58-16.25,14.58,0,0,9.59-13.92,9.59-17.03,0,0-12.19,14.63-14.96,14.96,0,0,9.63-14.01,8.52-17.01,0,0-12.19,15.6-12.97,14.17" style="fill:none; stroke:#000; stroke-miterlimit:10;"/><path d="M1045.4,939.66s2.64-6.19,1.35-9.02c0,0-3.62,8.44-5.74,7.39,0,0,2.63-8.19,1.4-10.2,0,0-5.76,8.73-6.49,7.79,0,0-.4-8.01-.1-10.28,0,0-4.92,6.81-4.53,8.05,0,0,.47-7.75-.11-10.54,0,0-3.03,6.92-4.16,9.74,0,0-1.54-8.98-.93-10.39l-2.06,10.17c-2.23-1.01-2.99-10.93-2.99-10.93-.89,2.22-3.5,9.99-3.5,9.99-2.98.62-5.62-11.72-5.62-11.72-1.92,2.69-1.3,11.72-1.3,11.72-5.7-2.34-5.84-12.25-5.84-12.25-2.2,2.59-2.38,12.25-2.38,12.25-3.48-1.17-4.54-11.72-4.54-11.72-1.37,3.62-.1,11.72-.1,11.72" style="fill:none; stroke:#000; stroke-miterlimit:10;"/><path d="M956.83,951.09s-6.72-2.38-10.14-8.55c0,0,7.28,6.55,14.06,5.8" style="fill:none; stroke:#000; stroke-miterlimit:10;"/><path d="M960.29,948.37s-8.97-4.14-9.96-8.77c0,0,1.82,3.93,11.15,6.4,0,0-6.34-4.25-7.78-10.06,0,0,4.5,8.63,11.24,8.66,0,0-7.86-8.96-6.68-12.93,0,0,5.78,11.48,9.98,11.49" style="fill:none; stroke:#000; stroke-miterlimit:10;"/><path d="M1065.07,954.71s.17,3.67,2.92,1.62c0,0-3.73-.04-4-2.17.04,1.29,3.02,1.86,4.56-1.54,0,0-6.52,2.49-6.18.48,0,0,3.45-.96,4.06-3.89,0,0-6.39,5.13-6.17,1.79,0,0,2.27-1.32,2.92-4.07,0,0-3.05,4.3-6.19.96,0,0,2.35,0,3.36-4.2,0,0-5.72,4.17-7.49.9,0,0,4.77-2.38,3.68-4.94,0,0-5.75,4.07-7.32,2.35,0,0,3.61-3.96,3.04-6.49,0,0-5.38,5.79-6.84,4.14" style="fill:none; stroke:#000; stroke-miterlimit:10;"/><path d="M968.25,943.16c-1.8-1.02-6.53-8.46-6.44-12.95,0,0,8.1,12.95,9.28,11.15,0,0-6.34-11.01-5.38-14.07,0,0,3.2,11,8.9,11.26,0,0-4.01-7.68-3.92-12.78,0,0,1.84,9.55,8.22,11.12,0,0-2.46-10.71-.91-14.04,0,0,3.21,13.77,6.23,12.54,0,0,1.38-11.96,1.92-14.59,0,0,3.65,11.48,6.17,12.2,0,0-1.88-11.44-.32-13.81,0,0,4.76,13.34,5.74,12.25" style="fill:none; stroke:#000; stroke-miterlimit:10;"/><path d="M1221.33,1020.23s65.44,43.82,145.93,15.58" style="fill:none; stroke:#000; stroke-miterlimit:10; stroke-width:.25px;"/><path d="M943.63,996.96s70.76,47.07,126.75,3.03" style="fill:none; stroke:#000; stroke-miterlimit:10; stroke-width:.25px;"/><path d="M1313.71,2082.53c-52.46,230.83-158.11,292.27-158.11,292.27,77.9,24.34,267.8-91.53,267.8-91.53,5.36,66.7-48.69,134.39-48.69,134.39,0,0,125.13-40.41,170.42-123.68,45.28-83.26-7.31-203.53,137.31-301.89,74.98-71.58,122.7-161.65,142.18-176.8,102.25,69.2-9.74,224.04-20.45,278.09-10.71,54.04,111.99,88.61,201.58,184.05,0,0-213.26-186.97-29.21-348.62,0,0,71.09,64.27-4.87,201.58,0,0,92.51-81.8,91.53-166.53,0,0,130.49,183.06,134.5,308.69,0,0,59.29-454.76-324.82-659.43" style="fill:none; stroke:#000; stroke-miterlimit:10;"/><path d="M1793.45,1628.86s80.82,227.87-180.16,332.07c-156.78,82.77-62.32,208.39-170.61,278.51" style="fill:none; stroke:#000; stroke-miterlimit:10;"/><path d="M1403.92,665.76s78.89,120.75,195.25,64.27c72.55-24.61,58.68,14.04,95.19,1.38" style="fill:none; stroke:#000; stroke-miterlimit:10;"/><path d="M1583.1,912.57s62.66,29.87,122.06-5.42" style="fill:none; stroke:#000; stroke-miterlimit:10;"/><path d="M1549.75,843.41s93.8,35.73,157.58,2.62" style="fill:none; stroke:#000; stroke-miterlimit:10;"/><path d="M1515.91,780.67s116.16,54.54,188.57,23.37" style="fill:none; stroke:#000; stroke-miterlimit:10;"/><path d="M1413.41,661.87s190.95,38,263.99,9.76" style="fill:none; stroke:#000; stroke-miterlimit:10;"/><path d="M1199.42,522.61s-34.68-45.91-.11-64.41" style="fill:none; stroke:#000; stroke-miterlimit:10;"/><path d="M1218.9,511.41s-16.19-45.7-3.51-58.2" style="fill:none; stroke:#000; stroke-miterlimit:10;"/><path d="M1240.32,486.33s-14.16-29.54-4.96-38.53" style="fill:none; stroke:#000; stroke-miterlimit:10;"/><path d="M1128.82,565.94s-38.54-39.81-21.98-65.14" style="fill:none; stroke:#000; stroke-miterlimit:10;"/><path d="M1056.76,588.34s-19.34-13.71-18.85-32.7" style="fill:none; stroke:#000; stroke-miterlimit:10;"/><path d="M1028.51,605.38s-17.62,4.2-26.38-7.49" style="fill:none; stroke:#000; stroke-miterlimit:10;"/><path d="M984.2,657s-3.62,3.41-14.83-4.87" style="fill:none; stroke:#000; stroke-miterlimit:10;"/><path d="M1005.63,628.75s-13.67,2.23-20.01-6.05" style="fill:none; stroke:#000; stroke-miterlimit:10;"/><path d="M1222.47,542.08s275.27-74.22,384.99,8.23" style="fill:none; stroke:#000; stroke-miterlimit:10;"/><path d="M1309.46,575.2s268-19,345.91,45.93" style="fill:none; stroke:#000; stroke-miterlimit:10;"/><path d="M1208.86,575.2s-21.44-72.64,94.76-123.32" style="fill:none; stroke:#000; stroke-miterlimit:10; stroke-width:2px;"/><path d="M1735.44,1119.56s83.34,111.99-39.85,209.37" style="fill:none; stroke:#000; stroke-miterlimit:10;"/></svg>